<svg width="118" height="38" viewBox="0 0 118 38" fill="none" xmlns="http://www.w3.org/2000/svg">
<path fill-rule="evenodd" clip-rule="evenodd" d="M28.715 4.958C33.162 8.04 36.074 13.18 36.074 19C36.074 24.82 33.162 29.96 28.715 33.042C30.2007 30.9968 30.999 28.5329 30.995 26.005C30.995 23.629 30.304 21.45 29.252 19.376C28.8803 20.056 28.4826 20.7215 28.06 21.371C28.695 22.87 29.07 24.391 29.07 26.005C29.07 31.241 25.072 35.543 19.963 36.028V33.224L20.016 33.092C21.136 30.325 23.032 27.757 24.937 25.178C25.975 23.773 27.015 22.365 27.933 20.919C28.335 20.288 28.713 19.649 29.057 19C30.217 16.814 30.995 14.516 30.995 11.995C30.995 9.366 30.149 6.935 28.715 4.958ZM9.285 4.958C7.79924 7.00317 7.00092 9.46712 7.005 11.995C7.005 14.439 7.593 16.603 8.509 18.596C8.876 17.866 9.284 17.159 9.719 16.47C9.19889 15.0353 8.93225 13.5211 8.931 11.995C8.931 6.759 12.928 2.457 18.037 1.972V4.69C18.0095 4.75754 17.9815 4.82487 17.953 4.892C16.878 7.421 15.111 9.726 13.307 12.078C12.116 13.633 10.907 15.209 9.873 16.884C9.449 17.571 9.053 18.274 8.7 19C7.676 21.105 7.005 23.395 7.005 26.005C7.005 28.634 7.85 31.065 9.285 33.042C4.838 29.96 1.926 24.82 1.926 19C1.926 13.18 4.838 8.04 9.285 4.958ZM19 0C29.493 0 38 8.507 38 19C38 29.493 29.493 38 19 38C8.507 38 0 29.493 0 19C0 8.507 8.507 0 19 0ZM14.954 13.098C15.989 11.751 17.077 10.334 18.037 8.814L18.037 29.186C17.077 27.666 15.989 26.249 14.954 24.902L14.953 24.901L14.532 24.352C13.24 22.664 12.032 21.04 11.072 19.362C10.7018 20.0474 10.379 20.7574 10.106 21.487C11.087 23.025 12.204 24.482 13.307 25.921C15.111 28.274 16.877 30.579 17.953 33.108L18.037 33.31V36.027C12.927 35.542 8.931 31.24 8.931 26.004C8.931 21.219 11.501 17.608 14.532 13.647L14.954 13.098ZM23.225 13.747C22.133 12.27 20.975 10.704 19.963 9.029V28.971C20.976 27.296 22.133 25.731 23.225 24.253L23.227 24.251L23.448 23.951C24.721 22.229 25.901 20.607 26.848 19L26.884 18.939L26.909 18.896C27.275 18.268 27.605 17.643 27.891 17.014C28.628 15.391 29.069 13.747 29.069 11.995C29.069 6.759 25.072 2.457 19.963 1.972V4.776L20.016 4.908C21.136 7.675 23.032 10.243 24.937 12.822C25.875 14.091 26.814 15.364 27.664 16.663C27.361 17.3463 27.0198 18.0121 26.642 18.657C25.732 17.162 24.63 15.649 23.448 14.048L23.225 13.747Z" fill="#302119"/>
<path d="M43.308 20L48.236 5.48H53.428L58.356 20H54.484L51.008 8.252H50.656L47.18 20H43.308ZM46.234 17.272V14.896H55.958V17.272H46.234ZM59.3001 20V5.48H65.4821C66.2888 5.48 67.0221 5.546 67.6821 5.678C68.3421 5.79533 68.9214 5.97867 69.4201 6.228C69.9334 6.46267 70.3661 6.756 70.7181 7.108C71.0701 7.44533 71.3341 7.84133 71.5101 8.296C71.6861 8.736 71.7741 9.22733 71.7741 9.77C71.7741 10.2833 71.6934 10.7453 71.5321 11.156C71.3708 11.5667 71.1214 11.926 70.7841 12.234C70.4614 12.542 70.0508 12.7913 69.5521 12.982C69.0534 13.1727 68.4741 13.312 67.8141 13.4V13.73C68.6501 13.818 69.2954 14.0087 69.7501 14.302C70.2194 14.5807 70.5788 14.9547 70.8281 15.424C71.0774 15.8933 71.2974 16.458 71.4881 17.118L72.3241 20H68.3861L67.7481 17.338C67.6161 16.7513 67.4328 16.2967 67.1981 15.974C66.9781 15.6513 66.6921 15.4313 66.3401 15.314C65.9881 15.182 65.5481 15.116 65.0201 15.116H62.8421V20H59.3001ZM62.8421 12.498H65.2401C66.1348 12.498 66.8314 12.322 67.3301 11.97C67.8288 11.618 68.0781 11.068 68.0781 10.32C68.0781 9.58667 67.8508 9.044 67.3961 8.692C66.9414 8.34 66.2521 8.164 65.3281 8.164H62.8421V12.498ZM79.9686 20.308C78.9126 20.308 77.9593 20.1467 77.1086 19.824C76.2579 19.5013 75.5246 19.0247 74.9086 18.394C74.3073 17.7633 73.8453 16.986 73.5226 16.062C73.1999 15.1233 73.0386 14.038 73.0386 12.806C73.0386 11.0753 73.3393 9.65267 73.9406 8.538C74.5566 7.40867 75.3999 6.56533 76.4706 6.008C77.5413 5.45067 78.7513 5.172 80.1006 5.172C81.1419 5.172 82.0879 5.33333 82.9386 5.656C83.7893 5.97867 84.5153 6.45533 85.1166 7.086C85.7326 7.71667 86.2019 8.50867 86.5246 9.462C86.8619 10.4007 87.0306 11.486 87.0306 12.718C87.0306 13.994 86.8546 15.1087 86.5026 16.062C86.1653 17.0007 85.6813 17.7853 85.0506 18.416C84.4346 19.0467 83.6939 19.5233 82.8286 19.846C81.9633 20.154 81.0099 20.308 79.9686 20.308ZM80.0786 17.536C80.7973 17.536 81.3986 17.36 81.8826 17.008C82.3813 16.6413 82.7553 16.1207 83.0046 15.446C83.2686 14.7567 83.4006 13.9207 83.4006 12.938C83.4006 11.8967 83.2686 11.0167 83.0046 10.298C82.7406 9.56467 82.3519 9.01467 81.8386 8.648C81.3399 8.26667 80.7239 8.076 79.9906 8.076C79.2866 8.076 78.6853 8.25933 78.1866 8.626C77.7026 8.978 77.3286 9.506 77.0646 10.21C76.8006 10.8993 76.6686 11.75 76.6686 12.762C76.6686 13.5247 76.7419 14.2067 76.8886 14.808C77.0499 15.3947 77.2699 15.8933 77.5486 16.304C77.8273 16.7 78.1793 17.008 78.6046 17.228C79.0446 17.4333 79.5359 17.536 80.0786 17.536ZM98.088 20V5.48H101.63V20H98.088ZM88.628 20V5.48H92.17V20H88.628ZM90.784 14.104V11.244H99.518V14.104H90.784ZM102.608 20L107.536 5.48H112.728L117.656 20H113.784L110.308 8.252H109.956L106.48 20H102.608ZM105.534 17.272V14.896H115.258V17.272H105.534ZM48.24 32V25.4H49.16V32H48.24ZM43.86 32V25.4H44.78V32H43.86ZM44.32 29.02V28.23H48.61V29.02H44.32ZM54.5717 32.13C54.0917 32.13 53.6684 32.05 53.3017 31.89C52.9417 31.73 52.6351 31.5 52.3817 31.2C52.1351 30.9 51.9484 30.5433 51.8217 30.13C51.6951 29.71 51.6317 29.24 51.6317 28.72C51.6317 27.96 51.7584 27.3267 52.0117 26.82C52.2651 26.3067 52.6151 25.92 53.0617 25.66C53.5084 25.4 54.0151 25.27 54.5817 25.27C55.0284 25.27 55.4317 25.3467 55.7917 25.5C56.1517 25.6533 56.4584 25.88 56.7117 26.18C56.9717 26.48 57.1717 26.8467 57.3117 27.28C57.4517 27.7067 57.5217 28.1933 57.5217 28.74C57.5217 29.2533 57.4551 29.72 57.3217 30.14C57.1951 30.5533 57.0051 30.91 56.7517 31.21C56.5051 31.5033 56.1984 31.73 55.8317 31.89C55.4717 32.05 55.0517 32.13 54.5717 32.13ZM54.5817 31.34C55.0084 31.34 55.3684 31.24 55.6617 31.04C55.9617 30.8333 56.1884 30.54 56.3417 30.16C56.5017 29.7733 56.5817 29.3067 56.5817 28.76C56.5817 28.1933 56.5017 27.7133 56.3417 27.32C56.1817 26.92 55.9517 26.6133 55.6517 26.4C55.3517 26.1867 54.9884 26.08 54.5617 26.08C54.1551 26.08 53.8017 26.1833 53.5017 26.39C53.2017 26.5967 52.9717 26.8967 52.8117 27.29C52.6517 27.6833 52.5717 28.1667 52.5717 28.74C52.5717 29.1533 52.6151 29.5233 52.7017 29.85C52.7951 30.17 52.9251 30.4433 53.0917 30.67C53.2651 30.89 53.4751 31.0567 53.7217 31.17C53.9751 31.2833 54.2617 31.34 54.5817 31.34ZM60.0006 32V25.4H61.4206L63.6106 31.04H63.6606L65.8406 25.4H67.2106V32H66.3406L66.4006 26.33H66.3206L64.0506 32H63.1506L60.9006 26.32H60.8206L60.8806 32H60.0006ZM69.9264 32V25.4H70.8464V32H69.9264ZM70.3964 32V31.21H74.5564V32H70.3964ZM70.3964 29V28.26H74.0864V29H70.3964ZM70.3964 26.18V25.4H74.5464V26.18H70.3964ZM79.3491 32.13C78.8691 32.13 78.4457 32.05 78.0791 31.89C77.7191 31.73 77.4124 31.5 77.1591 31.2C76.9124 30.9 76.7257 30.5433 76.5991 30.13C76.4724 29.71 76.4091 29.24 76.4091 28.72C76.4091 27.96 76.5357 27.3267 76.7891 26.82C77.0424 26.3067 77.3924 25.92 77.8391 25.66C78.2857 25.4 78.7924 25.27 79.3591 25.27C79.8057 25.27 80.2091 25.3467 80.5691 25.5C80.9291 25.6533 81.2357 25.88 81.4891 26.18C81.7491 26.48 81.9491 26.8467 82.0891 27.28C82.2291 27.7067 82.2991 28.1933 82.2991 28.74C82.2991 29.2533 82.2324 29.72 82.0991 30.14C81.9724 30.5533 81.7824 30.91 81.5291 31.21C81.2824 31.5033 80.9757 31.73 80.6091 31.89C80.2491 32.05 79.8291 32.13 79.3491 32.13ZM79.3591 31.34C79.7857 31.34 80.1457 31.24 80.4391 31.04C80.7391 30.8333 80.9657 30.54 81.1191 30.16C81.2791 29.7733 81.3591 29.3067 81.3591 28.76C81.3591 28.1933 81.2791 27.7133 81.1191 27.32C80.9591 26.92 80.7291 26.6133 80.4291 26.4C80.1291 26.1867 79.7657 26.08 79.3391 26.08C78.9324 26.08 78.5791 26.1833 78.2791 26.39C77.9791 26.5967 77.7491 26.8967 77.5891 27.29C77.4291 27.6833 77.3491 28.1667 77.3491 28.74C77.3491 29.1533 77.3924 29.5233 77.4791 29.85C77.5724 30.17 77.7024 30.4433 77.8691 30.67C78.0424 30.89 78.2524 31.0567 78.4991 31.17C78.7524 31.2833 79.0391 31.34 79.3591 31.34ZM85.268 29.98V29.2H86.888C87.5213 29.2 87.998 29.08 88.318 28.84C88.638 28.5933 88.798 28.2 88.798 27.66C88.798 27.16 88.648 26.7867 88.348 26.54C88.0546 26.2867 87.6013 26.16 86.988 26.16H85.268V25.4H87.008C87.4413 25.4 87.8246 25.45 88.158 25.55C88.498 25.65 88.7846 25.7967 89.018 25.99C89.2513 26.1833 89.428 26.4233 89.548 26.71C89.6746 26.99 89.738 27.3167 89.738 27.69C89.738 28.1833 89.6246 28.6 89.398 28.94C89.1713 29.28 88.838 29.54 88.398 29.72C87.958 29.8933 87.418 29.98 86.778 29.98H85.268ZM84.778 32V25.4H85.698V32H84.778ZM90.9992 32L93.3192 25.4H94.6592L96.9792 32H95.9892L94.0492 26.17H93.9292L91.9892 32H90.9992ZM92.0992 30.52V29.82H95.9892V30.52H92.0992ZM99.8577 32V25.4H100.778V32H99.8577ZM97.8477 26.2V25.4H102.788V26.2H97.8477ZM109.277 32V25.4H110.197V32H109.277ZM104.897 32V25.4H105.817V32H104.897ZM105.357 29.02V28.23H109.647V29.02H105.357ZM114.489 32V29.87L112.179 25.4H113.249L114.929 28.97H114.979L116.649 25.4H117.719L115.409 29.86V32H114.489Z" fill="#302119"/>
</svg>
