<svg xmlns="http://www.w3.org/2000/svg" width="142" height="38" fill="none"><g fill="#302119" clip-path="url(#a)"><path fill-rule="evenodd" d="M33.042 28.715C29.96 33.162 24.82 36.074 19 36.074S8.04 33.162 4.958 28.715a11.941 11.941 0 0 0 7.037 2.28c2.376 0 4.555-.691 6.629-1.743a30.371 30.371 0 0 1-1.995-1.192c-1.499.635-3.02 1.01-4.634 1.01-5.236 0-9.538-3.998-10.023-9.107h2.804l.132.053c2.767 1.12 5.335 3.016 7.914 4.921 1.405 1.038 2.813 2.078 4.259 2.996.631.402 1.27.78 1.919 1.124 2.186 1.16 4.484 1.938 7.005 1.938 2.629 0 5.06-.846 7.037-2.28Zm0-19.43a11.94 11.94 0 0 0-7.037-2.28c-2.444 0-4.608.588-6.601 1.504.73.367 1.437.775 2.126 1.21a13.162 13.162 0 0 1 4.475-.788c5.236 0 9.538 3.997 10.023 9.106H33.31a14.74 14.74 0 0 1-.202-.084c-2.529-1.075-4.834-2.842-7.186-4.646-1.555-1.191-3.131-2.4-4.806-3.434-.687-.424-1.39-.82-2.116-1.173-2.105-1.024-4.395-1.695-7.005-1.695-2.629 0-5.06.845-7.037 2.28C8.04 4.838 13.18 1.926 19 1.926s10.96 2.912 14.042 7.359ZM38 19c0 10.493-8.507 19-19 19S0 29.493 0 19 8.507 0 19 0s19 8.507 19 19Zm-13.098-4.046c1.347 1.035 2.764 2.123 4.284 3.083H8.814c1.52-.96 2.937-2.048 4.284-3.083l.001-.001.549-.421c1.688-1.292 3.312-2.5 4.99-3.46a17.025 17.025 0 0 0-2.125-.966c-1.538.981-2.995 2.098-4.434 3.201-2.353 1.804-4.658 3.57-7.187 4.646l-.202.084H1.973c.485-5.11 4.787-9.106 10.023-9.106 4.785 0 8.396 2.57 12.357 5.601l.55.422Zm-.649 8.271c1.477-1.092 3.043-2.25 4.718-3.262H9.029c1.675 1.013 3.24 2.17 4.718 3.262l.002.002.3.221c1.722 1.273 3.344 2.453 4.951 3.4l.061.036.043.025c.628.366 1.253.696 1.882.982 1.623.737 3.267 1.178 5.019 1.178 5.236 0 9.538-3.997 10.023-9.106h-2.804l-.132.053c-2.767 1.12-5.335 3.016-7.914 4.921-1.269.938-2.542 1.877-3.841 2.727a19.902 19.902 0 0 1-1.994-1.022c1.495-.91 3.008-2.012 4.609-3.194l.301-.223Z" clip-rule="evenodd"/><path d="M54.688 18.341c2.343 0 3.515-.719 3.515-2.156 0-1.083-1.057-1.932-3.172-2.547-.396-.114-.875-.25-1.437-.406-1.052-.281-1.76-.495-2.125-.64a6.21 6.21 0 0 1-2.328-1.548 3.398 3.398 0 0 1-.953-2.406c0-1.198.567-2.193 1.703-2.984 1.145-.792 2.526-1.188 4.14-1.188 1.573 0 3.047.287 4.422.86.677.28 1.224.671 1.64 1.171.428.5.641 1.021.641 1.563s-.218.974-.656 1.297c-.427.323-.875.484-1.344.484-.458 0-.765-.041-.922-.125-.145-.093-.218-.302-.218-.625 0-2.01-1.068-3.015-3.203-3.015-.886 0-1.657.198-2.313.593-.656.386-.984.891-.984 1.516 0 .98 1.02 1.755 3.062 2.328.323.084.714.188 1.172.313.458.114.88.234 1.266.359.385.115.786.255 1.203.422a9.56 9.56 0 0 1 1.344.625c.468.26.849.542 1.14.844.677.687 1.016 1.52 1.016 2.5 0 .968-.328 1.807-.984 2.515-1.303 1.386-3.178 2.078-5.626 2.078-1.593 0-3.062-.26-4.406-.78-.687-.272-1.24-.647-1.656-1.126-.417-.479-.625-.99-.625-1.531 0-.542.172-.958.516-1.25a1.727 1.727 0 0 1 1.172-.453c.437 0 .807.135 1.109.406.312.27.469.61.469 1.016 0 .395-.037.822-.11 1.28 1.104.407 2.282.61 3.532.61Zm15.54 1.813c-2.355 0-4.25-.74-5.688-2.219-1.438-1.49-2.156-3.375-2.156-5.656 0-1.521.38-2.875 1.14-4.063a7.415 7.415 0 0 1 3.079-2.718c1.302-.636 2.75-.954 4.343-.954 2.292 0 4.183.714 5.672 2.141 1.49 1.427 2.235 3.27 2.235 5.531 0 1.563-.386 2.953-1.157 4.172a7.648 7.648 0 0 1-3.093 2.797c-1.303.646-2.76.969-4.375.969Zm.64-1.735c1.552 0 2.76-.526 3.625-1.578.875-1.052 1.313-2.453 1.313-4.203 0-1.75-.5-3.26-1.5-4.531S72.019 6.2 70.446 6.2c-1.562 0-2.765.536-3.61 1.609-.843 1.073-1.265 2.48-1.265 4.219 0 1.74.495 3.24 1.485 4.5.99 1.26 2.26 1.89 3.812 1.89Zm12.978 1.344-1.344.016c-1.365 0-2.209-.209-2.531-.625a1.062 1.062 0 0 1-.22-.672c0-.271.105-.459.313-.563.209-.104.438-.161.688-.172.26-.01.495-.088.703-.234.208-.156.313-.4.313-.734V7.857c0-.604-.376-.969-1.126-1.094-.52-.083-.838-.172-.953-.266-.104-.104-.156-.28-.156-.53 0-.261.182-.496.547-.704.615-.375 1.385-.562 2.313-.562.937 0 1.536.135 1.796.406.271.26.407.849.407 1.765 1.427-1.614 3.39-2.421 5.89-2.421 2.031 0 3.469.557 4.313 1.671.854 1.105 1.281 2.782 1.281 5.032v5.625c0 .604.333.927 1 .968.677.032 1.016.297 1.016.797 0 .563-.323.917-.97 1.063-.478.104-1.14.156-1.984.156l-1.343.016c-1.365 0-2.209-.209-2.532-.625a1.062 1.062 0 0 1-.218-.672c0-.271.104-.459.312-.563.209-.104.438-.161.688-.172.26-.01.494-.088.703-.234.208-.156.312-.4.312-.734v-4.547c0-1.938-.224-3.354-.671-4.25-.5-1.01-1.506-1.516-3.016-1.516-1.823 0-3.063.485-3.719 1.453-.615.917-.922 2.38-.922 4.391v4.469c0 .604.334.927 1 .968.677.032 1.016.297 1.016.797 0 .573-.318.927-.953 1.063-.459.104-1.11.156-1.953.156Zm17.915-9.906c-.386 0-.823-.151-1.313-.453-.479-.313-.719-.714-.719-1.203 0-.5.141-.97.422-1.407a3.33 3.33 0 0 1 1.094-1.062 6.761 6.761 0 0 1 1.562-.703c1.084-.344 2.25-.516 3.5-.516 2.105 0 3.631.469 4.579 1.406.958.927 1.437 2.464 1.437 4.61l-.016 4.61c0 1.114.141 1.812.422 2.093.073.073.302.166.688.281 1.062.333 1.594.589 1.594.766 0 1.093-1.12 1.64-3.36 1.64-.844 0-1.396-.187-1.656-.562-.25-.375-.385-1.057-.406-2.047-.469.844-1.183 1.526-2.141 2.047a6.346 6.346 0 0 1-3.078.781c-1.094 0-2.021-.14-2.781-.422a4.07 4.07 0 0 1-1.86-1.36c-.468-.635-.703-1.317-.703-2.046 0-.73.084-1.312.25-1.75.167-.448.375-.823.625-1.125.25-.302.589-.573 1.016-.813a8.64 8.64 0 0 1 1.219-.562c.375-.146.859-.276 1.453-.39a27.533 27.533 0 0 1 2.203-.344c.594-.073.901-.115.922-.125.062-.01.416-.047 1.062-.11.656-.073 1.172-.213 1.547-.422 0-1.979-.266-3.27-.797-3.875-.469-.52-1.239-.78-2.312-.78-1.073 0-1.88.275-2.422.827-.531.542-.797 1.407-.797 2.594l.016.344c-.438.052-.855.078-1.25.078Zm7.562 2.219c-.708.26-1.51.442-2.406.546-.886.094-1.583.209-2.094.344-.51.136-.937.302-1.281.5-.792.459-1.188 1.245-1.188 2.36 0 1.791 1.042 2.687 3.125 2.687 1.802 0 2.943-.86 3.422-2.578.281-.98.422-2.266.422-3.86ZM55.09 33.44h-1l-1.65-5.88-1.61 5.88h-1L48 26.28h1.02l1.35 5.81 1.59-5.81h.98l1.63 5.81 1.32-5.81h1.01l-1.81 7.16Zm4.548-3.26v2.45h4.22v.81h-5.13v-7.16h4.96v.81h-4.05v2.28h3.9v.81h-3.9Zm7.262-3.9v6.35h3.53v.81h-4.44v-7.16h.91Zm6.26 0v6.35h3.53v.81h-4.44v-7.16h.91Zm10.898 0v7.16h-1.02l-3.71-5.81v5.81h-.86v-7.16h.99l3.74 5.85v-5.85h.86Zm3.34 3.9v2.45h4.22v.81h-5.13v-7.16h4.96v.81h-4.05v2.28h3.9v.81h-3.9Zm11.413-1.84h-.86c-.02-.934-.617-1.4-1.79-1.4-.48 0-.867.11-1.16.33a1 1 0 0 0-.44.85c0 .266.086.48.26.64.18.153.487.286.92.4l1.7.44c1.08.286 1.62.886 1.62 1.8 0 .66-.264 1.196-.79 1.61-.467.36-1.137.54-2.01.54-1.107 0-1.91-.334-2.41-1-.267-.36-.407-.844-.42-1.45h.86v.02c0 .52.177.923.53 1.21.36.28.86.42 1.5.42.587 0 1.023-.097 1.31-.29.34-.234.51-.56.51-.98 0-.534-.437-.91-1.31-1.13l-1.78-.46c-.933-.24-1.4-.79-1.4-1.65 0-.68.257-1.207.77-1.58.447-.327 1.036-.49 1.77-.49 1.04 0 1.783.303 2.23.91.26.353.39.736.39 1.15v.11Zm7.353 0h-.86c-.02-.934-.617-1.4-1.79-1.4-.48 0-.867.11-1.16.33a1 1 0 0 0-.44.85c0 .266.086.48.26.64.18.153.486.286.92.4l1.7.44c1.08.286 1.62.886 1.62 1.8 0 .66-.264 1.196-.79 1.61-.467.36-1.137.54-2.01.54-1.107 0-1.91-.334-2.41-1-.267-.36-.407-.844-.42-1.45h.86v.02c0 .52.176.923.53 1.21.36.28.86.42 1.5.42.586 0 1.023-.097 1.31-.29.34-.234.51-.56.51-.98 0-.534-.437-.91-1.31-1.13l-1.78-.46c-.934-.24-1.4-.79-1.4-1.65 0-.68.256-1.207.77-1.58.446-.327 1.036-.49 1.77-.49 1.04 0 1.783.303 2.23.91.26.353.39.736.39 1.15v.11Zm9.058 1.8h.78c-.006.473-.22 1.043-.64 1.71l1.28 1.59h-1.06l-.71-.88c-.32.313-.57.526-.75.64-.366.233-.796.35-1.29.35-.646 0-1.14-.2-1.48-.6-.286-.347-.43-.797-.43-1.35 0-.854.494-1.55 1.48-2.09-.306-.387-.516-.69-.63-.91a1.616 1.616 0 0 1-.16-.69c0-.467.184-.85.55-1.15.314-.267.69-.4 1.13-.4.494 0 .894.163 1.2.49.26.286.39.636.39 1.05 0 .353-.1.656-.3.91-.193.246-.543.513-1.05.8l1.31 1.6c.014-.02.04-.07.08-.15.2-.38.3-.687.3-.92Zm-2.12-1.05.13-.08c.587-.367.88-.74.88-1.12 0-.24-.083-.44-.25-.6a.814.814 0 0 0-.6-.24c-.26 0-.466.076-.62.23-.153.153-.23.36-.23.62 0 .18.037.333.11.46.074.126.267.37.58.73Zm-.27.93c-.26.093-.506.303-.74.63-.233.32-.35.613-.35.88 0 .36.11.66.33.9.227.233.51.35.85.35.474 0 .97-.267 1.49-.8l-1.58-1.96Zm13.309-1.68h-.86c-.02-.934-.617-1.4-1.79-1.4-.48 0-.867.11-1.16.33a1 1 0 0 0-.44.85c0 .266.087.48.26.64.18.153.487.286.92.4l1.7.44c1.08.286 1.62.886 1.62 1.8 0 .66-.263 1.196-.79 1.61-.467.36-1.137.54-2.01.54-1.107 0-1.91-.334-2.41-1-.267-.36-.407-.844-.42-1.45h.86v.02c0 .52.177.923.53 1.21.36.28.86.42 1.5.42.587 0 1.023-.097 1.31-.29.34-.234.51-.56.51-.98 0-.534-.437-.91-1.31-1.13l-1.78-.46c-.933-.24-1.4-.79-1.4-1.65 0-.68.257-1.207.77-1.58.447-.327 1.037-.49 1.77-.49 1.04 0 1.783.303 2.23.91.26.353.39.736.39 1.15v.11Zm3.303 2.07v3.03h-.91v-7.16h2.96c.753 0 1.32.206 1.7.62.333.36.5.853.5 1.48 0 .633-.204 1.136-.61 1.51-.374.346-.837.52-1.39.52h-2.25Zm0-.81h1.91c.433 0 .773-.11 1.02-.33.246-.22.37-.53.37-.93 0-.394-.124-.7-.37-.92-.247-.22-.587-.33-1.02-.33h-1.91v2.51Zm10.212 1.69h-2.76l-.76 2.15h-.97l2.55-7.16h1.18l2.51 7.16h-1.01l-.74-2.15Zm-.26-.77-1.1-3.25-1.17 3.25h2.27Z"/></g><defs><clipPath id="a"><path fill="#fff" d="M0 0h141.406v38H0z"/></clipPath></defs></svg>